# xmcd
#
# Track frame offsets: 
#        150
#        17702
#        35028
#        54943
#        72934
#        87803
#        107855
#        126907
#        147110
#        167127
#
# Disc length: 2658 seconds
#
# Revision: 1
# Processed by: cddbd v1.5.2PL0 Copyright (c) Steve Scherf et al.
# Submitted via: ExactAudioCopy v1.0b1
#
DISCID=860a600a
DTITLE=Beverley Skeete - Woman Got Soul
DYEAR=2009
DGENRE=Blues
TTITLE0=Too Late
TTITLE1=A Slice of Humble Pie
TTITLE2=The World
TTITLE3=Fallen Angel
TTITLE4=Take A Walk In Their Shoes
TTITLE5=Ain't No Other Reason
TTITLE6=Drink O'Clock
TTITLE7=The Devil's Own
TTITLE8=I Bruise Easily
TTITLE9=Do I Look Stupid To You ?
EXTD=
EXTT0=
EXTT1=
EXTT2=
EXTT3=
EXTT4=
EXTT5=
EXTT6=
EXTT7=
EXTT8=
EXTT9=
PLAYORDER=
